<svg width="35" height="30" viewBox="0 0 35 30" fill="none" xmlns="http://www.w3.org/2000/svg">
<path fill-rule="evenodd" clip-rule="evenodd" d="M8.92917 0.0725411C7.15548 0.332756 5.6772 1.13359 4.16578 2.65307C2.44617 4.38188 1.31637 6.47874 0.560828 9.34356C-0.0843545 11.79 -0.181688 15.1342 0.314664 17.8014C1.12246 22.1426 3.40969 25.6898 6.488 27.3753C7.0943 27.7073 8.22956 28.0676 8.99684 28.1717C9.8345 28.2852 10.9064 28.2205 11.7537 28.0053C12.1185 27.9126 12.4701 27.807 12.5352 27.7706C12.629 27.7181 12.7245 27.7687 12.9974 28.0159C14.8126 29.6595 17.6025 30.3329 20.5716 29.8438C26.8626 28.8077 32.9517 23.1039 34.5561 16.7442C34.8756 15.4779 34.9523 14.7364 34.9107 13.3164C34.8818 12.3285 34.8435 11.9806 34.7026 11.4239C33.9071 8.27923 31.6741 6.23032 28.4564 5.69223C27.5107 5.53412 25.4631 5.58466 24.4632 5.79086C22.8 6.13381 20.7263 6.95749 19.3688 7.81453C19.2268 7.90415 19.0776 7.9856 19.0372 7.99549C18.9969 8.00538 18.8463 7.70458 18.7025 7.32691C18.1337 5.83205 17.1908 4.24 16.21 3.11811C14.1966 0.815057 11.5147 -0.306765 8.92917 0.0725411Z" fill="#986B54"/>
<path fill-rule="evenodd" clip-rule="evenodd" d="M14.4667 1.59556C14.4667 1.6152 14.6322 1.88558 14.8345 2.19641C15.3553 2.99656 15.9678 4.25118 16.3398 5.27963C16.9101 6.8562 16.8645 7.06908 15.7545 8.01315C14.3147 9.23776 12.823 10.8593 11.8538 12.2535C11.6624 12.5287 11.4845 12.754 11.4583 12.754C11.4321 12.754 11.3796 12.6696 11.3416 12.5664C11.3036 12.4633 11.114 11.9645 10.9204 11.458C10.3062 9.8515 9.58097 7.18278 9.17813 5.04643C9.01716 4.19273 8.80524 3.889 8.43521 3.9819C8.28283 4.02009 8.20078 4.13196 7.9894 4.58936C7.38378 5.90033 7.10467 7.15481 7.05242 8.80095C7.00965 10.1466 7.08482 11.0115 7.34756 12.1969C7.56582 13.1818 7.7489 13.7393 8.32546 15.1754C8.58158 15.8131 8.88695 16.6075 9.00407 16.9406L9.21708 17.5463L9.01778 18.3389C8.56187 20.1512 8.43814 22.2082 8.69235 23.7489C8.8358 24.6185 8.78682 24.9007 8.42211 25.3044C8.08905 25.673 7.83429 25.7409 6.96798 25.6917C5.78381 25.6245 4.51541 25.2037 3.45784 24.5271C3.24026 24.388 3.07294 24.3022 3.08611 24.3365C3.17662 24.5725 4.66854 26.1424 5.11101 26.4673C5.23617 26.5592 5.37429 26.6664 5.41794 26.7056C5.54699 26.8214 6.34155 27.2904 6.39128 27.2801C6.41645 27.2749 6.4558 27.2963 6.47872 27.3277C6.57878 27.4643 7.84405 27.9589 8.37082 28.0672C9.59284 28.3186 10.9747 28.2587 12.0688 27.9069L12.7042 27.7025L12.9887 27.973C13.4536 28.4152 13.486 28.4419 13.5603 28.4419C13.5995 28.4419 13.6721 28.4907 13.7216 28.5505C13.8359 28.6882 14.8091 29.2604 14.929 29.2604C14.9785 29.2604 15.1479 29.3229 15.3056 29.3995C15.6802 29.5812 16.7351 29.8427 17.4797 29.9384C18.2181 30.0333 19.6828 29.9895 20.5393 29.8471C22.4612 29.5275 24.311 28.8103 26.3047 27.6118C28.6401 26.2079 31.0631 23.7881 32.5654 21.3595C33.763 19.4234 34.5216 17.4316 34.8295 15.4141C34.9799 14.429 34.9312 11.4841 34.7754 12.1401C34.7531 12.2339 34.6521 12.6636 34.5509 13.095C33.5641 17.3033 30.345 21.566 26.2285 24.1158C22.806 26.2356 18.8745 26.9878 15.9228 26.0875C13.5128 25.3524 11.762 23.6482 10.9902 21.2864C10.6997 20.3975 10.6759 20.0737 10.8459 19.32C11.3521 17.0756 12.4414 14.7497 13.8733 12.8563C15.1518 11.1656 16.8351 9.55118 18.4692 8.44852C18.7438 8.26327 18.9685 8.09622 18.9685 8.0774C18.9685 8.00019 18.5357 6.91574 18.4734 6.83689C18.4364 6.79004 18.4258 6.75163 18.4497 6.75163C18.5212 6.75163 17.6431 5.08919 17.2887 4.55376C16.7176 3.69072 16.4015 3.29968 15.7286 2.62339C15.1455 2.03735 14.4667 1.48452 14.4667 1.59556ZM28.0491 9.65376C26.7257 10.1629 25.2198 11.155 24.1459 12.2252C22.7016 13.6648 21.8045 15.0589 20.8431 17.358C19.8088 19.8313 18.7993 21.6448 16.7615 24.6904C16.2125 25.5109 16.1592 25.7628 16.4764 26.0356C16.7174 26.2429 16.9521 26.2316 17.5855 25.982C19.0984 25.3859 20.8124 24.1166 22.0085 22.7069C23.1153 21.4022 23.8602 20.1027 24.7028 18.006C25.6307 15.6971 26.6374 13.8094 28.213 11.4239C29.1333 10.0305 29.1922 9.88165 28.9269 9.61638C28.7516 9.44109 28.5833 9.44825 28.0491 9.65376Z" fill="#845C47"/>
<path fill-rule="evenodd" clip-rule="evenodd" d="M8.27458 4.1078C8.16142 4.24408 7.74071 5.25132 7.57674 5.77836C7.21373 6.9452 6.98824 8.71003 7.06449 9.7869C7.2063 11.7896 7.48063 12.9467 8.29333 14.9707C9.2166 17.27 9.70156 18.89 10.3352 21.7916L10.4991 22.5419L10.5061 21.9962C10.5309 20.0495 11.0443 17.9308 11.9539 16.0213L12.3633 15.162L12.1791 14.623C12.0777 14.3266 11.8417 13.7464 11.6544 13.3337C10.6085 11.0286 9.78682 8.37546 9.21312 5.45124C9.09028 4.82474 8.95625 4.32941 8.88225 4.22792C8.74112 4.03441 8.39265 3.96552 8.27458 4.1078ZM28.1064 9.68213C26.4854 10.2757 24.8077 11.4553 23.5657 12.8747C22.4713 14.1254 21.7225 15.37 20.9096 17.2898C19.9692 19.5106 19.1704 21.0262 17.9262 22.9511C17.5867 23.4763 17.0838 24.2554 16.8087 24.6824C16.5335 25.1094 16.3084 25.5338 16.3084 25.6255C16.3084 25.7203 16.3978 25.8817 16.5157 25.9996C16.7633 26.2472 16.8617 26.2381 17.7186 25.8888C18.8722 25.4185 20.0613 24.613 21.1367 23.5735C22.6749 22.0866 23.6303 20.5828 24.6304 18.0742C25.4803 15.9425 26.9809 13.1569 28.4133 11.0518C28.968 10.2366 29.0944 9.9328 28.9653 9.72497C28.8219 9.49408 28.6442 9.48521 28.1064 9.68213ZM10.5214 22.7124C10.5214 22.8062 10.5369 22.8446 10.5558 22.7976C10.5748 22.7508 10.5748 22.674 10.5558 22.6271C10.5369 22.5803 10.5214 22.6186 10.5214 22.7124Z" fill="#523838"/>
</svg>
